<svg xmlns="http://www.w3.org/2000/svg" xmlns:xlink="http://www.w3.org/1999/xlink" id="Layer_1" x="0" y="0" version="1.1" viewBox="0 0 420 468" xml:space="preserve" style="enable-background:new 0 0 420 468"><style type="text/css">.st0{fill:none}.st1{fill:#f8efe3;stroke-linecap:round;stroke-miterlimit:10}.st1,.st2,.st3,.st4{stroke:#6f6f6e;stroke-width:6}.st2,.st3,.st4,.st5,.st6{stroke-linecap:round;stroke-miterlimit:10}.st2{fill:#989898}.st3{fill:#c6c6c5}.st4{fill:#f9e5c5}.st5,.st6{fill:none;stroke:#989898;stroke-width:7}.st6{stroke:#6f6f6e;stroke-width:6}.st7{fill:#6f6f6e}.st8{fill:#c6c6c5}.st9{fill:#dbdbdb}.st10{fill:#afafaf}.st11{fill:none;stroke:#6f6f6e;stroke-width:6.4559;stroke-linecap:round;stroke-miterlimit:10}.st12{fill:#989898}.st13{fill:#bbd690}.st14{fill:#f18d66}.st15{fill:#d1e3b8}.st16{fill:#ec6b43}</style><g><path d="M172.7,39.6" class="st0"/></g><path d="M354.3,147.3c0,0,2,72-128.2,53.1c-65-9.4-118.9-41.7-118.9-93.2s53.2-93.2,118.9-93.2	C382.3,19.3,354.3,147.3,354.3,147.3z" class="st1"/><polygon points="86.7 31.3 115 66.3 87.3 66" class="st2"/><path d="M204.3,121.3v-92L171.7,62H96.3L83,30.3c0,0-27,57.2-23.3,82.3c2.5,17.2,12.8,27,32.7,35.7h61.5" class="st1"/><line x1="41" x2="57.5" y1="101.6" y2="103.3" class="st3"/><path d="M356.1,139.3c0,0,4.1,210.4-60.8,201c-33.2-8.8-9.8-36,1.7-28c5.6,2.9,34.3-5,35.3-179" class="st1"/><line x1="41.8" x2="59.3" y1="116.3" y2="115.3" class="st4"/><line x1="45.3" x2="60.3" y1="87.3" y2="93" class="st4"/><line x1="204.7" x2="220" y1="94" y2="88.6" class="st4"/><line x1="204.7" x2="221" y1="103.6" y2="104" class="st4"/><path d="M69.7,113c-1.3,0.8,2.7-3.2,8.9-7.7" class="st5"/><path d="M180.6,106.1c-1.1-1.1,3.7,1.9,9.5,7" class="st5"/><line x1="204.3" x2="220.7" y1="113.3" y2="115.3" class="st4"/><path d="M87.8,97.8c0,0,13.5-11,24.5,0" class="st6"/><path d="M146.3,97.8c0,0,13.5-11,24.5,0" class="st6"/><circle cx="142.3" cy="129.3" r="7.6" class="st7"/><line x1="130.6" x2="130.6" y1="63.3" y2="86.3" class="st5"/><line x1="141.8" x2="141.8" y1="63.3" y2="78.1" class="st5"/><line x1="119.3" x2="119.3" y1="63.3" y2="78.1" class="st5"/><path d="M204.3,121.3v-92L171.7,62H96.3L83,30.3c0,0-27,57.2-23.3,82.3c2.5,17.2,12.8,27,32.7,35.7h61.5" class="st6"/><path d="M376.4,450.2H44.8c-10.4,0-18.9-8.5-18.9-18.9V167c0-10.4,8.5-18.9,18.9-18.9h331.6c10.4,0,18.9,8.5,18.9,18.9	v264.3C395.3,441.7,386.9,450.2,376.4,450.2z" class="st8"/><rect width="233.5" height="8.1" x="96.9" y="357.9" class="st9"/><rect width="366" height="5.4" x="27.3" y="244.9" class="st9"/><path d="M377.7,145.5H43.5c-9.7,0-17.6,5.9-17.6,13.2v13.5c0-7.3,7.9-13.2,17.6-13.2h334.2c9.7,0,17.6,5.9,17.6,13.2	v-13.5C395.3,151.4,387.5,145.5,377.7,145.5z" class="st9"/><path d="M43.5,452.6h334.2c9.7,0,17.6-5.9,17.6-13.2V426c0,7.3-7.9,13.2-17.6,13.2H43.5c-9.7,0-17.6-5.9-17.6-13.2	v13.5C25.9,446.8,33.8,452.6,43.5,452.6z" class="st10"/><path d="M329.2,451.3H95.1V321.9c0-19.1,15.5-34.6,34.6-34.6h164.9c19.1,0,34.6,15.5,34.6,34.6V451.3z" class="st11"/><path d="M376.4,451.4H44.9c-10.5,0-18.9-8.5-18.9-18.9V167c0-10.5,8.5-18.9,18.9-18.9h331.5c10.5,0,18.9,8.5,18.9,18.9	v265.5C395.3,443,386.9,451.4,376.4,451.4z" class="st11"/><line x1="27.3" x2="393.3" y1="242.3" y2="242.3" class="st11"/><path d="M355.9,131.4c0.2,16.4,1.4,215.4-59.8,208.5c-0.6-0.1-1.3-0.2-1.9-0.4c-31.9-9-8.7-35.7,2.6-27.7	c5.5,2.9,34.4-11.4,36.1-178.8c0.1-5,3-9.6,7.7-11.5c5.7-2.4,13-2.9,15.1,7.7C355.9,129.9,355.9,130.7,355.9,131.4z" class="st12"/><path d="M332.3,133.3c-1,174-29.7,181.9-35.3,179c-11.4-8-34.9,19.2-1.7,28c64.8,9.4,60.8-209.5,60.8-209.5	s0.2-5.8-0.2-14.8" class="st6"/><rect width="27.3" height="46" x="52.3" y="176.3" class="st13"/><rect width="27.3" height="46" x="101.8" y="176.3" class="st14"/><rect width="27.8" height="12" x="51.8" y="210.3" class="st15"/><rect width="27.3" height="46" x="52.3" y="176.3" class="st11"/><rect width="27.8" height="12" x="100.7" y="176.3" class="st16"/><rect width="27.3" height="46" x="101.2" y="176.3" class="st11"/><line x1="97.9" x2="328.9" y1="357.9" y2="357.9" class="st11"/><path d="M260.1,307.8H157.6c-5.6,0-10.2-4.6-10.2-10.2l0,0c0-5.6,4.6-10.2,10.2-10.2h102.6c5.6,0,10.2,4.6,10.2,10.2	l0,0C270.3,303.2,265.8,307.8,260.1,307.8z" class="st7"/></svg>